<?xml version="1.0" encoding="UTF-8"?>
<svg xmlns="http://www.w3.org/2000/svg" xmlns:xlink="http://www.w3.org/1999/xlink" viewBox="0 0 400 400">
  <defs>
    <style>
      .cls-1 {
        fill: #f2bb30;
      }

      .cls-1, .cls-2, .cls-3, .cls-4 {
        stroke-width: 0px;
      }

      .cls-2 {
        fill: none;
      }

      .cls-3 {
        fill: #241668;
      }

      .cls-4 {
        fill: #e00000;
      }

      .cls-5 {
        clip-path: url(#clippath);
      }
    </style>
    <clipPath id="clippath">
      <circle class="cls-2" cx="200" cy="200" r="200.47"/>
    </clipPath>
  </defs>
  <g id="faces">
    <g id="faceA">
      <path class="cls-4" d="M171.44,170.08v.03c-.03.45-.14.87-.41,1.31l-2.38,4.04c0-.37-.01-.73-.02-1.11l-.27-3.43-.02-.99s-.11-.91-.2-2.11c-.03-.39-.06-.81-.09-1.24l3.1-.09h.22c.05,1.24.07,2.08.08,2.62.01.36.01.67-.01.98Z"/>
      <path class="cls-4" d="M168.27,166.6l.07,3.34s.02-.25.01-.77c0-.52-.03-1.34-.08-2.56Z"/>
      <path class="cls-4" d="M261.54,60.12h-.12s-.19,0-.19,0h-.8v-.07l.02-3.01v-1.88s.02-1.07.02-1.07h0c.28,0,.56,0,.81,0l.04,1.08.09,1.93.12,2.99Z"/>
      <path class="cls-4" d="M261.29,57.13c-.27,0-.58-.01-.81-.01.57,0,.76.02.81.01Z"/>
      <path class="cls-4" d="M167.43,236.37l-2.58,1.66-2.58,1.67s-.01-.03-.02-.04l-.06-.09s-.08-.11-.12-.16l-.18-.24h.01s2.34-1.96,2.34-1.96l1.93-1.61.37-.32.04-.03c.11.13.23.27.35.42.16.2.28.37.4.52l.12.17Z"/>
      <path class="cls-4" d="M164.84,238.03c-.04-.05-.06-.09-.09-.13-.07-.1-.15-.21-.23-.31-.08-.1-.16-.21-.23-.29.19.23.38.47.55.73Z"/>
      <path class="cls-4" d="M167.31,236.2c-.11-.16-.23-.33-.4-.52-.11-.16-.23-.3-.35-.42l-.04.03-.37.32-1.93,1.61-2.34,1.95c.06.08.12.16.17.25.04.05.08.11.12.16l.06.09s.02.03.02.04l2.58-1.67,2.58-1.66-.12-.17ZM170.81,296.05c-.03.3-.07.62-.11.95.19,0,.39,0,.58,0-.15-.32-.32-.64-.47-.96ZM171.38,166.93h-.2c-.01-.15-.02-.3-.03-.44l-3.1.09c.03.43.06.85.09,1.24.09,1.2.17,2.11.2,2.11l.02.99.27,3.43c.01.38.02.74.02,1.11l2.38-4.04c.26-.44.38-.86.41-1.31v-.03l-.06-3.15ZM161.48,120.3v.12c.07.06.07.03,0-.12ZM261.42,57.13l-.09-1.93-.04-1.08c-.25,0-.53,0-.81,0h0v1.07s-.02,1.88-.02,1.88l-.02,3.01.5.04.26-2.05.07,2.08h.28s-.12-3-.12-3Z"/>
      <path class="cls-4" d="M170.15,350.62s0,0,0,0c0,0,0,0,0,0Z"/>
      <path class="cls-4" d="M307.58,236.37c-.08-2.82-.21-7.09-.11-7.89l.03-.22-.15-6.12s.04-1.91.05-2.24h.11c-.01-4.34-.04-5.41-.1-7.54l-.06-2.03s0-.05,0-.08l.14-5.87c0-11.46-.15-21.75-.33-31.18l-.61-31.95c-.05-7.41-.21-15.89-.46-24.51-.32-11-.71-20.57-1.2-29.29-.36-6.15-.7-10.82-1.1-15.15-.21-2.22-.49-4.86-.89-7.57-.18-1.17-.41-2.55-.78-3.99-.1-.38-.2-.77-.35-1.16-.04-.12-.08-.24-.1-.27-.05-.17-.14-.39-.22-.55-.2-.46-.44-.87-.69-1.21-.39-.51-.83-.94-1.37-1.29-.25-.15-.64-.37-1.1-.49-.22-.08-.45-.15-.59-.17l-1.12-.25c-2.64-.54-5.23-.91-7.4-1.19-2.44-.32-4.85-.55-6.99-.76-4.01-.37-8.13-.65-12.63-.88-5.71-.27-11.31-.43-16.65-.48-1.43-.02-2.88-.03-4.33-.03-4.42,0-8.76.09-12.89.25-6.57.31-12.11.7-17.75,1.69-.69.11-1.37.26-2.06.4l-.83.18c-.17.04-.34.08-.51.13l-1.59.41s-.05.01-.08.02l-1.81.58-.31.13c-1.2.45-2.17,1.11-2.95,1.67-1.48,1.15-2.78,2.61-3.83,4.3-.83,1.34-1.57,2.82-2.24,4.55-.54,1.39-1.01,2.86-1.44,4.52-.37,1.41-.69,2.88-.99,4.47-.49,2.66-.86,5.55-1.17,8.84-.46,5.14-.66,10.65-.64,17.35.02,4.99.17,10.36.48,16.91l.63,12.25.08,1.99.05,1.49.02.81v3.19c0,.79.62,1.45,1.41,1.5l2.48.16,1.28.08,1.04.05.68.02,1.04.02s.37,0,.43,0c5.48.26,11.45.37,18.78.37h1.51c6.97-.03,13.81-.16,20.35-.38,0,0,1.67-.05,4.59-.19,1.45-.07,3.23-.16,5.27-.3,1.04-.07,2.14-.15,3.29-.26.61-.06,1.22-.12,1.88-.2l.67-.1.62-.1c.59-.11,1.48-.29,2.41-.81.69-.4,1.2-.9,1.56-1.46.35-.52.57-1.11.71-1.82.15-.88.1-1.82-.16-2.88l-.08-.31-.16-.55c-.07-.24-.15-.46-.24-.68-.15-.42-.34-.84-.52-1.25-.65-1.43-1.47-2.89-2.51-4.48-1.93-2.95-4.24-5.72-6.84-8.25-2.93-2.83-6.08-5.17-9.37-6.94-3.78-2.05-7.88-3.36-11.85-3.77-1.03-.11-2.07-.17-3.12-.17s-2.13.06-3.2.18c-1.05.12-2.12.34-3.33.67-1.16.35-2.08.68-2.88,1.02-1.71.71-3.39,1.57-5.09,2.63-1.46.9-2.94,1.91-4.36,3.03-1.28,1.01-2.54,2.1-3.74,3.25-1.15,1.1-2.22,2.22-3.15,3.3-.37.4-.7.81-1.03,1.22l-.24.3c-.06-1.25-.12-2.5-.19-3.73h.09l-.05-.89c-.17-3.63-.39-8.91-.44-13.4-.05-3.88.03-6.52.1-7.28l.06-.18v-.46c.06-3.03.17-5.77.35-8.38.22-3.24.53-6.09.95-8.71.51-3.29,1.17-6.01,1.98-8.32.49-1.36,1.02-2.51,1.63-3.5.55-.93,1.2-1.69,1.88-2.21l.36-.24.24-.14.34-.14.53-.18c.45-.15.86-.3,1.32-.4,0,0,.82-.23.94-.26l1.13-.25c.5-.12,1-.21,1.49-.31l.47-.08c2.96-.53,5.86-.85,8.04-1.07,4.62-.44,8.67-.66,12.45-.85v.04c2.94-.16,5.31-.22,7.94-.22h1.44c2.77.02,5.64.07,10.18.16l.34.02,1.12.06h-.12c4.72.07,11.2.41,16.95.91,5.58.48,11.43,1.21,15.12,1.89l.41.22.17.03c.27,1.19.47,2.48.63,3.69.4,2.94.67,5.93.88,8.47h.13c.04.7.09,1.51.14,2.4.08,1.57.17,3.29.26,5.11.17,3.51.38,7.5.65,11.59.19,4.65.51,9.42.81,14.04.45,6.83.93,13.87,1.02,20.89,0,.14-.02.28-.05.42-.05.24-.08.54-.1.9-.13.4-.22.88-.25,1.45v.12s0,.13,0,.13c.14,4.23.17,7.74.19,11.45.03,3.73.05,7.58.2,12.65l-.16.45.02.56c.28,7.47.29,14.58.31,20.85.01,5.24.02,10.19.18,14.37.11,6.55.03,9.08-.05,11.31v.51c-.1,2.59-.15,5.15.03,12.47,0,.03,0,.06,0,.09l-.2,5.72c-.01,3.03.05,4.25.11,5.44.07,1.25.12,2.43.07,6.05,0,.04,0,.09,0,.14-.04.4-.05.74-.06.98-.02.66-.03,1.52-.04,2.33-.01.51-.02,1.01-.02,1.4h-.11c-.08,6.28-.06,12.57-.04,19.26.03,10.48.07,21.33-.29,34.04v.23c.12,2.46.08,6.86.05,10.76-.03,3.12-.06,5.85-.01,7.48,0,.04,0,.07,0,.11-.03.58-.07,1.82-.15,5.08h-.34c-.28,6.14-.37,11.63-.46,16.93v.87c-.02,1.03-.03,2.03-.08,3.02-.08,1.34-.22,2.3-.45,3.08-.25.84-.63,1.55-1.16,2.19l-.07.1-.44.44c-.13.03-.28.06-.43.08l.02.14c-.12.02-.24.03-.37.05-1,.15-2.02.26-3.05.36l-.02-.13c-2.86.26-5.78.43-8.26.57-2.79.16-5.57.29-8.37.4v.13c-1.93.06-3.58.09-5.18.12l-2.27.05c-2.61.05-5.72.14-10.76.42-.6.03-1.12.12-1.55.25-.13.04-.26.06-.4.07-13.52.27-32.68.46-40.45.53,0,0-1.45.27-.25.13-.49.06-2.88.1-4.79.14h-.8s-.47-.15-.47-.15l-.57.02c-2.88.07-5.04.1-6.61.1-1.82,0-2.53-.04-3.3-.09-1.13-.08-2.19-.13-5.42-.13-1.03,0-2.29,0-3.85,0v-.08s-3.77.3-3.77.3c-.03,0-.07,0-.1,0-1.44.02-2.65.03-3.68.03-3.35,0-4.7-.1-6.12-.21h-.2v-.05c-.18-1.13-.37-2.53-.55-4.27l-.27.03c-.07-.67-.13-1.48-.18-2.42l.16-.02c-.12-1.91-.2-3.2-.26-4.31-.03-.51-.05-.99-.07-1.47.06-.28.1-.57.11-.91.02-.35.02-.87.01-1.67l.21-.02c-.18-3.41-.33-6.99-.44-10.64.02-1.16.04-2.43.06-3.74.05-3.32.11-7.09.23-10.47.02-.57.03-1.11.05-1.64.03-.82.71-1.46,1.53-1.44,3.67.07,7.97.18,13.1.36v.04c2.55,0,4.99.04,7.36.08l8.38.16h1.38c.57,0,1.1-.32,1.35-.84l.43-.87.41-.84c.26-.53.18-1.16-.2-1.62l-.57-.68-.98-1.28c-.41-.54-.82-1.09-1.22-1.59l-.8-1.01c-.32-.4-.66-.82-.98-1.15l-.84-.94-.9-.94c-.22-.24-.46-.47-.65-.65-1.66-1.61-3.42-3.09-5.24-4.39-2.05-1.46-4.03-2.61-6.1-3.54-.96-.4-2.26-.91-3.78-1.24-1.13-.23-2.33-.35-3.55-.35-.21,0-.43,0-.64,0l-1.1.07-.89.13c-.32.03-.63.1-.95.17l-.79.18-.93.29c-.26.07-.51.16-.69.24l-.95.37-.71.35c0-.33-.01-.65-.01-.97-.03-1.67-.04-3.2-.04-4.62,0-2.87.03-5.32.07-7.64l.12-7.44c.03-2.24.07-4.64.08-7.49-.02-1.41-.06-2.67-.14-3.94-.04-.58-.08-1.14-.14-1.78l-.1-.89-.11-.88c-.17-1.18-.38-2.59-.79-4.43-.17-.76-.36-1.46-.56-2.15-.05-.15-.07-.31-.06-.47l.05-1.56c.09-3.91.11-7.7.11-12.19-.01-1.78-.01-3.55-.02-5.35h.23c0-.44,0-.89-.01-1.33h.1c.15-7.48.01-15.04-.17-22.09-.07-2.64-.15-5.31-.22-8.01-.15-5.1-.31-10.33-.42-15.74v-.09l-.27-3.43v-.67c-.04.45-.15.87-.42,1.31l.11-4.86s0-.1,0-.14c-.07-.9-.13-1.84-.18-2.65,0-.44.03-.59.06-.77.03-.24.06-.47.08-.88.03-.76.03-2.13-.24-6.47-.13-3.57-.49-8.27-.96-12.89-.61-5.83-1.31-10.7-2.09-14.46l-.16.03c-.33-1.68-.62-3-1.03-4.32l-.04-.14c-.06-.19-.12-.37-.19-.55l-.19-.51c-.08-.23-.18-.45-.29-.68l-.21-.44c-.06-.12-.11-.22-.2-.38-.33-.56-.62-1.07-.94-1.54,0-.03-.01-.05-.02-.08l-.05-.54-.63-.68c-.07-.08-.17-.22-.29-.38-.58-.76-1.64-2.15-2.92-3.57l.09-.09c-1.3-1.47-2.62-2.75-4.15-4.03-1.04-.86-2.04-1.62-3.1-2.32-1.72-1.14-2.82-1.71-3.86-2.25l-.31-.15c-.43-.21-.87-.42-1.36-.63l-.45-.2-1.18-.48-.74-.27c-1.2-.43-2.43-.8-3.74-1.13-1.89-.45-3.79-.76-5.81-.94h-.19c-.58-.04-1.09-.07-1.57-.08h-1.21c-.77.02-1.15.04-1.49.09-.43.06-.8.18-1.14.36-1.43.15-2.88.41-4.29.81-1.05.28-2.1.64-3.23,1.09-1.06.42-2.09.9-3.08,1.41-3.78,1.97-7.4,4.63-11.07,8.12l.14.15c-1.28,1.28-2.51,2.64-3.73,4.1-1.61,1.94-3.07,3.95-4.33,5.96-1.39,2.22-2.39,4.15-3.14,6.07-.39,1.04-.79,2.29-.92,3.72-.07,1.29.16,2.37.73,3.3.48.76,1.19,1.36,2.06,1.72l.11.04.41.14.1.02c.16.05.34.07.51.1.21.03.44.05.65.06l2.21.06,4.6.14h12.31c19.12,0,32.17-.07,38.98-.21.79-.02,1.44.58,1.52,1.36.04.45.09.92.13,1.39.38,3.95.67,7.92.97,12.87.48,8.34.72,15.62.92,22.25.2,7.23.35,14.42.46,22.62.1,8,.2,17.53.12,29.2,0,.31-.01.62-.01.93-.11-.05-.49-.2-.49-.2l-.32-.09c-.2-.06-.43-.13-.72-.2-.31-.07-.63-.15-.88-.19l-.44-.08-.52-.07c-.29-.05-.59-.08-.88-.1l-.2-.02-.12,1.23-.13.62v-1.91c-.44-.03-.86-.04-1.26-.04-1.55,0-2.71.19-3.55.36-.39.08-.69.16-.95.23l-.25.06-.1.04c-.36.11-.56.19-.63.22l-.1.04-.23.12c-.79.26-1.58.57-2.3.95-2.57,1.25-4.85,3.21-6.41,5.48-.73,1.05-1.34,2.17-1.8,3.36-.07.17-.13.34-.18.5l-.11.29c-.06.19-.11.37-.16.54l-.06.21c-.05.18-.1.38-.12.49l-.02.11,3.05.51-3.07-.39-.24,1.33.15.6c.02.09.05.18.09.31l.1.33.1.25c.24.6.58,1.06.81,1.35l.09.11c.2.24.49.55.87.87.37.3.73.55,1.11.78.24.15.45.27.61.36l.03.02.19.16.41.17c1.64.69,3.18,1.05,4.48,1.3,1.27.25,2.59.43,4.07.58,1.61.15,3.2.22,4.76.22.99,0,1.97-.03,2.95-.09.82-.05,1.56-.13,2.27-.22l1.7,1.46c.03,1.44.03,2.91.03,4.21,0,2.52-.05,5.06-.09,7.58l-.05,3.31c-.04,2.9-.08,6.64-.04,10.02-.03.83-.06,1.65-.09,2.48-.03,1.02-1.02,1.69-1.99,1.38-.03-.01-.06-.02-.09-.03-1.59-.52-3.26-.88-4.97-1.07-.89-.1-1.8-.15-2.67-.15-.26,0-.51,0-.74.02v-.04c-1.65.03-3.24.22-4.7.52-.72.15-1.46.34-2.37.62,0,0-.55.17-.67.21l-.02-.05c-2.9.99-5.78,2.42-8.5,4.2-.5.32-.99.66-1.46,1l-.47.33c-.19.14-.88.65-.88.65-.33.24-.64.47-.91.68-1.22.93-2.37,1.91-3.42,2.79l-1,.87-2.24,2-3.7,3.35-.76.65c-.48.41-.65,1.09-.42,1.68l.75,1.94c.22.58.78.96,1.4.96h1.07l7.44.27,5.98.19.03-.18c9.49.33,16.23.4,22.76.49l2.26.03s-.01.08-.01.12c-.07.42-.1.81-.12,1.11-.02.35-.04.68-.06.83l1.71.22h-.34c-.79.04-1.42.68-1.45,1.47-.14,4.96-.17,10.33-.09,14.95.07,4.21.13,6.58.43,8.02.02.09.03.17.03.26l.05,2.45c.05,1.96.07,3.04.06,3.55,0,.13,0,.21-.01.3-.04.18-.07.38-.1.74l-.27,3.25h.56l.14,1.65c.1,1.2.24,2.84.47,4.57.08.64.17,1.33.31,2.06h-.05c.08.48.18.96.32,1.48l.05.18c.04.13.07.26.1.34.07.23.15.45.24.66.27.65.61,1.18,1.07,1.69,1.18,1.2,2.68,1.37,3.5,1.46l.53.05,1,.07c1.71.09,3.38.13,4.95.16,3.45.06,6.83.08,9.68.08v-.25c1.54.05,1.89.1,2.2.13.61.08,1.17.13,3.35.13.77,0,1.77,0,3.08-.02l4.9-.06-.1-.19c4.93.02,9.19.05,13.19.09h.58c4,.05,7.99.09,12.52.09,1.54,0,3.13,0,4.84-.02,7.33-.13,14.57-.31,21.5-.51,8.31-.25,15.22-.51,21.76-.83,4.24-.21,7.73-.4,10.97-.63,2.17-.15,3.92-.3,5.54-.44.95-.1,1.89-.2,2.86-.32.92-.12,1.95-.26,3.09-.51.12-.02.24-.06.47-.12l.23-.06c.17-.05.35-.11.56-.19.39-.15.73-.32,1.04-.51.39-.23.65-.47.84-.64l.52-.46c.19-.17.38-.36.56-.55l.09-.09c.43-.42.76-.85,1.06-1.22l.17-.22c.15-.19.28-.39.43-.6l.4-.6.2-.38c.57-.99,1.02-2.09,1.37-3.38.34-1.18.5-2.31.6-3.28.17-1.61.2-3.14.23-4.61l.15-6.26c.32-13.76.46-26.99.61-41.61l.38-39.56s0-.08,0-.12l.17-1.94c.14-.88.12-2.57-.05-8.23ZM209.76,129.09c1.85-2.68,3.97-5.08,6.44-7.33,1.69-1.53,3.35-2.83,5.04-3.97,1.08-.73,2.07-1.33,3.04-1.86,1.19-.63,2.3-1.14,3.38-1.56,1.37-.51,2.48-.81,3.54-.94.28-.04.58-.06.93-.08.34-.03.67-.03,1-.04h.23c.61,0,1.23.03,1.85.08,2.62.23,5.34,1,7.92,2.23l-.03.07c2.28,1.07,4.44,2.46,6.61,4.23,1.82,1.51,3.56,3.24,5.16,5.13,1.5,1.78,2.79,3.59,3.83,5.39.11.2.22.39.33.58-.12,0-.24.02-.38.03-1.61.14-3.21.25-4.8.36-3.11.2-6.19.36-9.33.52-.06,0-.11,0-.17,0-.51-.04-1.21-.05-2.24-.05-1.55,0-3.66.04-5.98.09l-2.45.04c-3.44.07-6.63.11-9.01.11-1.24,0-2.33,0-3.18-.04v-.03c-1,0-1.99.02-3,.02-1.97,0-4-.03-5.99-.09-.62-.02-1.24-.04-1.85-.06-1.18-.04-1.86-1.36-1.2-2.34.11-.16.22-.32.33-.49ZM131.77,131.7l-15.76-.34-9.87-.17c.2-.42.45-.88.7-1.36,1.34-2.39,3.02-4.79,5.01-7.14.95-1.13,1.96-2.21,3.01-3.24,1.05-1.05,2.16-2.04,3.29-2.95,2.45-1.97,4.97-3.52,7.44-4.57,1.47-.61,2.82-1.03,4.14-1.28.64-.13,1.32-.22,2.13-.28l.48-.03h.69c.18,0,.37,0,.56,0h.46c1.59.07,3.21.26,4.86.59.84.17,1.72.4,2.39.6l.44.14c.23.07.46.14.75.25l.61.22.59.24c3.32,1.33,6.32,3.3,8.96,5.82,1.4,1.36,2.68,2.85,3.79,4.43.6.84,1.15,1.7,1.64,2.55l.05.1c.05.08.07.14.1.21l.1.19c.03.07.06.15.09.23l.09.23.21.64c.04.13.19.66.19.66.28,1.07.51,2.14.71,3.2.18.95-.57,1.81-1.54,1.78-9.51-.37-25.48-.7-26.32-.71ZM161.49,120.42v-.12c.06.15.06.18,0,.12ZM165.37,292.8c-.07.38-.13.76-.18,1.14-6.46-.07-12.66-.14-19.23-.32-1.53-.04-2.05-2.11-.69-2.83.01,0,.03-.01.04-.02,1.51-.8,3.04-1.43,4.56-1.89.73-.23,1.39-.39,2.06-.5.6-.11,1.24-.19,1.96-.23.38-.03.73-.04,1.09-.04.26,0,.52,0,.85.02.18,0,.36.02.54.04l.29.02.33.03c.15.02.31.03.46.06h.11c.53.08,1.08.2,1.52.29.5.12.98.23,1.45.38.67.21,1.36.46,2.07.76.08.03.16.07.23.12.3.18.6.38.9.61l.27.22.08.07.58.54.5.59.29.5c-.03.16-.06.31-.09.45ZM162.26,239.7c.35.45.66,1.02.96,1.67,0,.07-.01.15-.01.22-.35.06-.73.12-1.13.17-1.1.13-2.33.19-3.65.19h-.07c-1.1,0-2.21-.04-3.31-.14-.67-.06-1.3-.12-1.89-.2l-.68-2.73c.24-.17.49-.32.75-.46,1.31-.7,2.8-1.08,4.29-1.08.36,0,.71.02,1.04.06.5.07.96.16,1.26.26.29.09.57.22.83.38.44.27.85.65,1.24,1.14l.38.53ZM170.25,350.68s-.07-.04-.1-.06c.06.03.13.06.19.09-.03,0-.06-.02-.09-.03ZM170.69,297c.04-.33.08-.65.11-.95.15.32.32.64.47.96-.19,0-.39,0-.58,0Z"/>
      <path class="cls-4" d="M170.34,350.71s-.06-.02-.09-.03c-.04-.02-.07-.04-.1-.06.06.03.13.06.19.09Z"/>
      <path class="cls-4" d="M161.49,120.42v-.12c.06.15.06.18,0,.12Z"/>
      <path class="cls-4" d="M203,134.08c.08-.24.5-1.41.64-1.75.15-.38-.79,2.25-.64,1.75Z"/>
      <path class="cls-4" d="M167.31,236.2c-.11-.16-.23-.33-.4-.52-.11-.16-.23-.3-.35-.42l-.04.03c0,.25,0,.5-.01.75-.06-.08-.13-.17-.2-.26-.05-.06-.09-.12-.15-.18l-1.93,1.61c.11.12.2.25.29.37.08.11.16.21.23.32.03.04.06.08.09.13l2.58-1.66-.12-.17ZM261.33,55.2c-.29,0-.58,0-.87-.02v1.88c.37.04.75.06.83.08h.13l-.09-1.93Z"/>
    </g>
  </g>
  <g id="type">
    <g class="cls-5">
      <g id="favicon-2" data-name="favicon">
        <rect id="bg" class="cls-1" width="400" height="400"/>
        <g id="face">
          <path class="cls-3" d="M165,176.6l-.64,1.12-.28-14.18.52-.02c.13,3.5.23,6.89.33,10.3.03.93.05,1.85.07,2.78Z"/>
          <path class="cls-3" d="M167.14,166.81l-.06-3.33c.05,1.21.07,2.03.08,2.56.01.52,0,.74-.02.77Z"/>
          <path class="cls-3" d="M170.16,165.98c0,.33.01.63-.01.91l-.06-3.08h-.2c-.01-.15-.02-.3-.03-.45h.22c.05,1.25.07,2.09.08,2.62Z"/>
          <path class="cls-3" d="M167.14,166.81l-.06-3.33c.05,1.21.07,2.03.08,2.56.01.52,0,.74-.02.77Z"/>
          <path class="cls-3" d="M257.29,52.24c-.28-.01-.57-.02-.86-.02v-1.07h.02c.28,0,.54.01.79.01l.05,1.08Z"/>
          <path class="cls-3" d="M257.49,57.15h-.12s-.03.01-.03.01h-.16s-.78-.01-.78-.01v-.05l.02-3.01c.37.03.74.06.82.07h.13l.12,2.99Z"/>
          <path class="cls-3" d="M257.24,54.16c-.26,0-.56-.01-.79-.01.56,0,.73.02.79.01Z"/>
          <path class="cls-3" d="M161.26,236.47c-.12-.18-.25-.35-.38-.51h.01s.37.51.37.51Z"/>
          <path class="cls-3" d="M160.5,117.25v.12c.07.06.07.03,0-.12ZM169.53,292.72c-.05.29-.09.62-.13.98.19,0,.39,0,.59,0-.15-.33-.31-.65-.46-.99ZM167.16,166.04c-.01-.53-.03-1.35-.08-2.56l.06,3.33s.03-.25.02-.77ZM160.89,235.95c.1.13.2.26.29.4l.06.08s.02.03.02.04l-.37-.52ZM164.93,173.82c-.1-3.41-.2-6.8-.33-10.3l-.52.02.28,14.18.64-1.12c-.02-.93-.04-1.85-.07-2.78ZM257.24,51.16c-.25,0-.51-.01-.79-.01h-.01v1.07c.28,0,.57.01.85.02l-.05-1.08ZM257.21,57.16h.28s-.28,0-.28,0Z"/>
          <path class="cls-3" d="M302.12,233.16c-.86-57.03.76-115.22-4.54-171.41,1.79-19.62-73.65-12.22-87.24-9.65-23.73,14.1-12.51,51.28-13.87,75.49.05,1.45.11,3.34.15,5.17.03,2.1,1.68,3.82,3.78,3.96,8.4.32,17.12.57,25.94.57,11.22,0,22.59-.4,33.6-1.55,18.35-13.61-33.8-54.47-55.46-17.76-.15-56.73-8.14-62.93,53.01-60.83h-.12c8.76.21,23.26,1.04,31.48,3.01,3.41,21.47,3.23,44.13,4.57,66.33-.56,35.78.75,70.04.22,105.71-1.61,34.19,2.29,72.38-3,106.61-21.58,4.23-60.69,2.61-79.33,3.71-9.65.43-19-.52-28.73.13-3.26.07-7.8.02-9.75-.19-.66-4.61-1.63-10.51-.82-15.07-2.93-31.54-.35-28.83,29.35-27.27,2.47.63,3.06-1.53,3.88-3.43-26.42-36.91-35.07-1.17-32.83-29.91-1.09-33.09-1.14-65.8-2.25-99.12-1.33-13.13.15-38.2-6.71-51.04-16.94-30.52-58.65-16.72-65.69,14.12-.43,4.08,3.07,5.8,6.57,5.41,80.46-1.25,51.89-7.85,58.17,89.5.77,1.78-7.87-1.39-11.21.83-6.77,1.81-16.52,13.55-7.45,18.43,4.84,3.22,15.93,1.55,20.16,2.56-1.51,8.23,3.14,27.08-2.22,29.92-12.83-4.55-25.09,3.82-33.95,12.57-2.76,2.94-6.6,3.99-3.64,8.58,1.11.16,7.95.06,9.25.27,6.41,1.32,31.8-2.24,29.86,2.87.87,9.59-3.52,49.95,7.06,48.98,38.03.48,78.17.68,116.26-2.22,13.47.92,15.05-13.72,14.43-23.96.57-27.88.8-62.53,1.07-91.32ZM207.3,126.02c20.38-37.32,69.99,8.61,31.34,2.79-7.85-1.54-32.91,4.17-31.34-2.79ZM131.69,128.64c-5.85-.16-19.11-.41-24.85-.51,6.14-12.15,19.54-24.95,34.09-19.63,7.19,2.19,13.44,7.77,16.69,14.57,7.17,12.44-26.57,3.25-25.93,5.57ZM160.51,117.37v-.12c.06.15.06.18,0,.12ZM149.62,237.87c2.75-4.47,10.72-5.58,12.56.27-3.38,1.26-8.83.42-12.56-.27ZM140.62,290.17c13.6-11.31,21.54-2.65,22.96-2.22.81,6.29-16.83.89-22.96,2.22ZM167.14,166.81l-.04-2.6c.05,1.11.09,1.86.04,2.6Z"/>
          <path class="cls-3" d="M168.25,346.33s0,0,0,0c.03.05.04.11.07.17-.02-.05-.05-.11-.07-.16Z"/>
          <path class="cls-3" d="M168.45,346.74s0,0,0,0c0,0,0,0,0,0Z"/>
        </g>
      </g>
    </g>
  </g>
</svg>